<?xml version="1.0" encoding="utf-8"?>
<!-- Generator: Adobe Illustrator 24.1.1, SVG Export Plug-In . SVG Version: 6.00 Build 0)  -->
<svg version="1.1" id="Layer_1" xmlns="http://www.w3.org/2000/svg" xmlns:xlink="http://www.w3.org/1999/xlink" x="0px" y="0px"
	 viewBox="0 0 64 64" style="enable-background:new 0 0 64 64;" xml:space="preserve" width="64px" height="64px">
<style type="text/css">
	.st0{opacity:0;fill:none;}
	.st1{fill:url(#SVGID_1_);}
	.st2{fill:#FFFFFF;}
</style>
<rect class="st0" width="64" height="64"/>
<g id="Layer_2_1_">
	<g id="Capa_1">
		
			<linearGradient id="SVGID_1_" gradientUnits="userSpaceOnUse" x1="14.0866" y1="16.0866" x2="49.9134" y2="51.9134" gradientTransform="matrix(1 0 0 -1 -7.549925e-07 66)">
			<stop  offset="0" style="stop-color:#FFC107"/>
			<stop  offset="0.51" style="stop-color:#F44336"/>
			<stop  offset="1" style="stop-color:#9C27B0"/>
		</linearGradient>
		<circle class="st1" cx="32" cy="32" r="25.3"/>
		<path class="st2" d="M38.3,15.1H25.7c-5.8,0-10.6,4.7-10.6,10.6v12.7c0,5.8,4.7,10.6,10.6,10.6l0,0h12.7c5.8,0,10.6-4.7,10.6-10.6
			v0V25.7C48.9,19.8,44.2,15.1,38.3,15.1L38.3,15.1z M45.7,38.3c0,4.1-3.3,7.4-7.4,7.4h0H25.7c-4.1,0-7.4-3.3-7.4-7.4c0,0,0,0,0,0
			V25.7c0-4.1,3.3-7.4,7.4-7.4l0,0h12.7c4.1,0,7.4,3.3,7.4,7.4l0,0V38.3z"/>
		<path class="st2" d="M32,23.6c-4.7,0-8.4,3.8-8.4,8.4s3.8,8.4,8.4,8.4s8.4-3.8,8.4-8.4l0,0C40.4,27.3,36.7,23.6,32,23.6z M32,37.3
			c-2.9,0-5.3-2.4-5.3-5.3c0-2.9,2.4-5.3,5.3-5.3c2.9,0,5.3,2.4,5.3,5.3c0,0,0,0,0,0C37.3,34.9,34.9,37.3,32,37.3z"/>
		<circle class="st2" cx="41.1" cy="22.9" r="1.1"/>
	</g>
</g>
</svg>
