<?xml version="1.0" encoding="utf-8"?>
<!-- Generator: Adobe Illustrator 24.1.1, SVG Export Plug-In . SVG Version: 6.00 Build 0)  -->
<svg version="1.1" id="Layer_1" xmlns="http://www.w3.org/2000/svg" xmlns:xlink="http://www.w3.org/1999/xlink" x="0px" y="0px"
	 viewBox="0 0 64 64" style="enable-background:new 0 0 64 64;" xml:space="preserve" width="64px" height="64px">
<style type="text/css">
	.st0{fill:none;}
	.st1{fill:#03A9F4;}
	.st2{fill:#FFFFFF;}
</style>
<rect class="st0" width="64" height="64"/>
<g id="surface12804545">
	<path class="st1" d="M32,57.3C18,57.3,6.7,46,6.7,32S18,6.7,32,6.7S57.3,18,57.3,32S46,57.3,32,57.3z"/>
	<path class="st2" d="M46.3,22.7c-1.1,0.4-2.2,0.7-3.4,1c1.2-0.7,2.1-1.9,2.5-3.2c-1.2,0.6-2.4,1.2-3.7,1.4
		c-1.1-1.2-2.6-1.8-4.2-1.8c-3.3,0-5.9,2.6-5.9,5.8c0,0.4,0,0.8,0.1,1.4c-4.9-0.2-9.2-2.5-12-6.1c-0.5,0.8-0.8,1.9-0.8,3
		c0,2,1.1,3.8,2.6,4.9c-0.9,0-1.9-0.3-2.6-0.7c0,0,0,0,0,0.1c0,2.9,2,5.2,4.8,5.7c-0.5,0.1-1.1,0.2-1.6,0.2c-0.4,0-0.7,0-1.1-0.1
		c0.7,2.3,3,4,5.5,4c-2,1.6-4.5,2.5-7.3,2.5c-0.4,0-1,0-1.4-0.1c2.6,1.7,5.7,2.6,9,2.6c10.8,0,16.7-8.9,16.7-16.6c0-0.2,0-0.5,0-0.7
		C44.5,24.9,45.5,23.9,46.3,22.7"/>
</g>
</svg>
